<?xml version="1.0" encoding="utf-8"?>
<!-- Generator: Adobe Illustrator 25.2.0, SVG Export Plug-In . SVG Version: 6.00 Build 0)  -->
<svg version="1.1" id="Layer_1" xmlns="http://www.w3.org/2000/svg" xmlns:xlink="http://www.w3.org/1999/xlink" x="0px" y="0px"
	 viewBox="0 0 416 352" style="enable-background:new 0 0 416 352;" xml:space="preserve">
<path d="M112,176c0-8.8,7.2-16,16-16h144V56c0-32-33.8-56-64-56H56C25.1,0,0,25.1,0,56v240c0,30.9,25.1,56,56,56h160
	c30.9,0,56-25.1,56-56V192H128C119.2,192,112,184.8,112,176z"/>
<path d="M411.3,164.7l-80-80c-6.4-6.1-16.5-5.8-22.6,0.6c-5.9,6.2-5.9,15.9,0,22l52.7,52.7H272v32h89.4l-52.7,52.7
	c-6.4,6.1-6.7,16.2-0.6,22.6s16.2,6.7,22.6,0.6c0.2-0.2,0.4-0.4,0.6-0.6l80-80C417.6,181.1,417.6,170.9,411.3,164.7z"/>
</svg>
